<svg xmlns="http://www.w3.org/2000/svg" viewBox="0 0 960 640" role="img" aria-labelledby="title desc">
  <title id="title">Modern home and mortgage planning dashboard</title>
  <desc id="desc">A warm illustration of a home exterior with payment cards and approval indicators.</desc>
  <defs>
    <linearGradient id="sky" x1="0" x2="1" y1="0" y2="1">
      <stop offset="0" stop-color="#d9eef0"/>
      <stop offset="1" stop-color="#f7f4ee"/>
    </linearGradient>
    <linearGradient id="glass" x1="0" x2="1">
      <stop offset="0" stop-color="#ffffff" stop-opacity=".92"/>
      <stop offset="1" stop-color="#edf7f5" stop-opacity=".82"/>
    </linearGradient>
    <filter id="shadow" x="-20%" y="-20%" width="140%" height="140%">
      <feDropShadow dx="0" dy="18" stdDeviation="18" flood-color="#12343b" flood-opacity=".18"/>
    </filter>
  </defs>
  <rect width="960" height="640" fill="url(#sky)"/>
  <circle cx="792" cy="126" r="68" fill="#f0bf72" opacity=".9"/>
  <path d="M0 514c124-64 238-84 342-58 118 29 230 18 336-34 93-45 187-54 282-27v245H0Z" fill="#d6e4d9"/>
  <g filter="url(#shadow)">
    <path d="M157 346 390 162l234 184v183H157Z" fill="#fdf7ec"/>
    <path d="M112 355 390 134l278 221" fill="none" stroke="#164e63" stroke-width="38" stroke-linecap="round" stroke-linejoin="round"/>
    <rect x="208" y="362" width="96" height="116" rx="8" fill="#d8a25e"/>
    <rect x="365" y="366" width="150" height="84" rx="10" fill="#b7d3d6"/>
    <path d="M440 366v84M365 408h150" stroke="#164e63" stroke-width="10" opacity=".55"/>
    <rect x="154" y="504" width="472" height="36" rx="18" fill="#164e63"/>
  </g>
  <g filter="url(#shadow)">
    <rect x="594" y="116" width="254" height="154" rx="26" fill="url(#glass)"/>
    <path d="M632 164h112M632 203h168" stroke="#164e63" stroke-width="14" stroke-linecap="round"/>
    <circle cx="792" cy="182" r="34" fill="#2f855a"/>
    <path d="m778 182 10 10 22-25" fill="none" stroke="#fff" stroke-width="9" stroke-linecap="round" stroke-linejoin="round"/>
  </g>
  <g filter="url(#shadow)">
    <rect x="626" y="330" width="208" height="132" rx="24" fill="#ffffff" opacity=".95"/>
    <path d="M664 373h132M664 416h78" stroke="#164e63" stroke-width="13" stroke-linecap="round"/>
    <path d="M800 416h1" stroke="#d8a25e" stroke-width="26" stroke-linecap="round"/>
  </g>
</svg>
